# xmcd
#
# Track frame offsets: 
#        150
#        18242
#        30938
#        51924
#        68508
#        86070
#        103778
#        120073
#        134241
#        149442
#        162683
#        178118
#        192610
#        209299
#        226325
#        244589
#        259268
#        276162
#
# Disc length: 3952 seconds
#
# Revision: 5
# Processed by: cddbd v1.5.2PL0 Copyright (c) Steve Scherf et al.
# Submitted via: ExactAudioCopyFreeDBPlugin 1.0
#
DISCID=070f6e12
DTITLE=Various Artist - Promo Only Country Radio March 2006
DYEAR=2006
DGENRE=Country
TTITLE0=Terri Clark - Damn Right
TTITLE1=Joe Nichols - Size Matters (Someday)
TTITLE2=Garth Brooks and Trisha Yearwood - Love Will Always Win
TTITLE3=Trent Willman - On Again Tonight
TTITLE4=Phil Vasser - The Last Day of My Life
TTITLE5=John Corbett - Good To Go
TTITLE6=Steve Holy - Brand New Girlfriend
TTITLE7=Cowboy Crush - Hillbilly Nation
TTITLE8=Shooter Jennings - Aviators
TTITLE9=Martina McBride feat. Dolly Parton - I Still Miss Someone
TTITLE10=Big and Rich - Never Mind Me
TTITLE11=Reba McEntire - Love Needs A Holiday
TTITLE12=Dierks Bentley - Settle For A Slowdown
TTITLE13=Mark McGuinn - One Man's Crazy
TTITLE14=Little Big Town - Bring It On Home
TTITLE15=Cory Morrow - Good Intentions
TTITLE16=Blaine Larsen - I Don't Know What She Said
TTITLE17=Faith Hill - Like We Never Loved At All (Live Version))
EXTD=
EXTT0=
EXTT1=
EXTT2=
EXTT3=
EXTT4=
EXTT5=
EXTT6=
EXTT7=
EXTT8=
EXTT9=
EXTT10=
EXTT11=
EXTT12=
EXTT13=
EXTT14=
EXTT15=
EXTT16=
EXTT17=
PLAYORDER=
